<?xml version="1.0" encoding="UTF-8" standalone="no"?>
<svg
   xmlns:dc="http://purl.org/dc/elements/1.1/"
   xmlns:cc="http://creativecommons.org/ns#"
   xmlns:rdf="http://www.w3.org/1999/02/22-rdf-syntax-ns#"
   xmlns:svg="http://www.w3.org/2000/svg"
   xmlns="http://www.w3.org/2000/svg"
   xmlns:sodipodi="http://sodipodi.sourceforge.net/DTD/sodipodi-0.dtd"
   xmlns:inkscape="http://www.inkscape.org/namespaces/inkscape"
   width="56"
   height="56"
   version="1.1"
   id="svg4761"
   sodipodi:docname="connected.svg"
   inkscape:version="0.92.3 (2405546, 2018-03-11)">
  <metadata
     id="metadata4767">
    <rdf:RDF>
      <cc:Work
         rdf:about="">
        <dc:format>image/svg+xml</dc:format>
        <dc:type
           rdf:resource="http://purl.org/dc/dcmitype/StillImage" />
        <dc:title></dc:title>
      </cc:Work>
    </rdf:RDF>
  </metadata>
  <defs
     id="defs4765" />
  <sodipodi:namedview
     pagecolor="#ffffff"
     bordercolor="#666666"
     borderopacity="1"
     objecttolerance="10"
     gridtolerance="10"
     guidetolerance="10"
     inkscape:pageopacity="0"
     inkscape:pageshadow="2"
     inkscape:window-width="1233"
     inkscape:window-height="851"
     id="namedview4763"
     showgrid="false"
     inkscape:zoom="6.8482143"
     inkscape:cx="5.7131677"
     inkscape:cy="23.728814"
     inkscape:window-x="657"
     inkscape:window-y="290"
     inkscape:window-maximized="0"
     inkscape:current-layer="svg4761" />
  <g
     id="g4754"
     transform="matrix(0,0.96551724,-0.96551724,0,55.034483,0.96551728)">
    <title
       id="title4748">background</title>
    <rect
       id="canvas_background"
       height="58"
       width="58"
       y="-1"
       x="-1"
       style="fill:#fbc234" />
    <g
       display="none"
       overflow="visible"
       y="0"
       x="0"
       height="100%"
       width="100%"
       id="canvasGrid"
       style="display:none;overflow:visible">
      <rect
         y="0"
         x="0"
         height="100%"
         width="100%"
         id="rect4751"
         style="fill:url(#gridpattern);stroke-width:0" />
    </g>
  </g>
  <path
     style="opacity:1;fill:#808080;fill-opacity:1;stroke:#000000;stroke-width:0.98799998;stroke-miterlimit:4;stroke-dasharray:none;stroke-opacity:1"
     d="M 50.505859,28 A 22.506006,22.506006 0 0 0 28,5.4941406 22.506006,22.506006 0 0 0 5.494141,28 22.506006,22.506006 0 0 0 28,50.505859 22.506006,22.506006 0 0 0 50.505859,28 Z M 36.515625,28 A 8.5164776,8.5164776 0 0 1 28,36.515625 8.5164776,8.5164776 0 0 1 19.484375,28 8.5164776,8.5164776 0 0 1 28,19.484375 8.5164776,8.5164776 0 0 1 36.515625,28 Z"
     id="path30"
     inkscape:connector-curvature="0" />
  <path
     style="opacity:1;fill:#fbc234;fill-opacity:1;stroke:#000000;stroke-width:1.00967193;stroke-miterlimit:4;stroke-dasharray:none;stroke-opacity:1"
     d="M 28,19.504836 H 55.495164 V 36.495164 H 28"
     id="rect5314"
     inkscape:connector-curvature="0"
     sodipodi:nodetypes="cccc" />
  <!-- Created with Method Draw - http://github.com/duopixel/Method-Draw/ -->
</svg>
