<?xml version="1.0" encoding="UTF-8" standalone="no"?>
<svg
   xmlns:dc="http://purl.org/dc/elements/1.1/"
   xmlns:cc="http://creativecommons.org/ns#"
   xmlns:rdf="http://www.w3.org/1999/02/22-rdf-syntax-ns#"
   xmlns:svg="http://www.w3.org/2000/svg"
   xmlns="http://www.w3.org/2000/svg"
   xmlns:sodipodi="http://sodipodi.sourceforge.net/DTD/sodipodi-0.dtd"
   xmlns:inkscape="http://www.inkscape.org/namespaces/inkscape"
   width="56"
   height="56"
   version="1.1"
   id="svg4719"
   sodipodi:docname="disconnected.svg"
   inkscape:version="0.92.3 (2405546, 2018-03-11)">
  <metadata
     id="metadata4725">
    <rdf:RDF>
      <cc:Work
         rdf:about="">
        <dc:format>image/svg+xml</dc:format>
        <dc:type
           rdf:resource="http://purl.org/dc/dcmitype/StillImage" />
        <dc:title></dc:title>
      </cc:Work>
    </rdf:RDF>
  </metadata>
  <defs
     id="defs4723" />
  <sodipodi:namedview
     pagecolor="#ffffff"
     bordercolor="#666666"
     borderopacity="1"
     objecttolerance="10"
     gridtolerance="10"
     guidetolerance="10"
     inkscape:pageopacity="0"
     inkscape:pageshadow="2"
     inkscape:window-width="1192"
     inkscape:window-height="922"
     id="namedview4721"
     showgrid="false"
     inkscape:zoom="8.0143508"
     inkscape:cx="33.583547"
     inkscape:cy="34.222923"
     inkscape:window-x="786"
     inkscape:window-y="316"
     inkscape:window-maximized="0"
     inkscape:current-layer="svg4719" />
  <!-- Created with Method Draw - http://github.com/duopixel/Method-Draw/ -->
  <g
     id="g4712"
     transform="matrix(0,0.96551724,-0.96551724,0,55.034483,0.96551728)">
    <title
       id="title4706">background</title>
    <rect
       id="canvas_background"
       height="58"
       width="58"
       y="-1"
       x="-1"
       style="fill:#ded0a3" />
    <g
       display="none"
       overflow="visible"
       y="0"
       x="0"
       height="100%"
       width="100%"
       id="canvasGrid"
       style="display:none;overflow:visible">
      <rect
         y="0"
         x="0"
         height="100%"
         width="100%"
         id="rect4709"
         style="fill:url(#gridpattern);stroke-width:0" />
    </g>
  </g>
  <path
     style="fill:#35476d;fill-opacity:1;stroke:#3f3e37;stroke-width:1px;stroke-linecap:butt;stroke-linejoin:miter;stroke-opacity:1"
     d="m 55.75,25.5 h -15.5 v 5 h 15.5 z"
     id="path6446"
     inkscape:connector-curvature="0"
     sodipodi:nodetypes="ccccc" />
  <path
     style="opacity:1;fill:#808080;fill-opacity:1;stroke:#000000;stroke-width:0.98799998;stroke-miterlimit:4;stroke-dasharray:none;stroke-opacity:1"
     d="m 12.085954,43.914044 a 22.506006,22.506006 0 0 0 31.828091,0 22.506006,22.506006 0 0 0 0,-31.828091 22.506006,22.506006 0 0 0 -31.828091,0 22.506006,22.506006 0 0 0 0,31.828091 z m 9.892589,-9.892589 a 8.5164776,8.5164776 0 0 1 0,-12.042913 8.5164776,8.5164776 0 0 1 12.042913,0 8.5164776,8.5164776 0 0 1 0,12.042913 8.5164776,8.5164776 0 0 1 -12.042913,0 z"
     id="path30"
     inkscape:connector-curvature="0" />
  <path
     style="opacity:1;fill:#aa0000;fill-opacity:1;"
     d="m 34.021456,21.978542 c 3.325087,3.325754 3.325087,8.717159 0,12.042913 l 9.892589,9.892589 c 8.789003,-8.789118 8.789003,-23.038973 0,-31.828091 z"
     id="path30-0"
     inkscape:connector-curvature="0"
     sodipodi:nodetypes="ccccc"
     inkscape:transform-center-x="-14.959749" />
  <path
     inkscape:connector-curvature="0"
     id="path5149"
     d="m 12.085954,43.914044 a 22.506006,22.506006 0 0 0 31.828091,0 22.506006,22.506006 0 0 0 0,-31.828091 22.506006,22.506006 0 0 0 -31.828091,0 22.506006,22.506006 0 0 0 0,31.828091 z m 9.892589,-9.892589 a 8.5164776,8.5164776 0 0 1 0,-12.042913 8.5164776,8.5164776 0 0 1 12.042913,0 8.5164776,8.5164776 0 0 1 0,12.042913 8.5164776,8.5164776 0 0 1 -12.042913,0 z"
     style="opacity:1;fill:#ffffff;fill-opacity:0;stroke:#000000;stroke-width:0.98799998;stroke-miterlimit:4;stroke-dasharray:none;stroke-opacity:1" />
</svg>
